<?xml version="1.0" encoding="UTF-8"?>
<!DOCTYPE svg PUBLIC "-//W3C//DTD SVG 1.1//EN" "http://www.w3.org/Graphics/SVG/1.1/DTD/svg11.dtd">
<!-- Creator: CorelDRAW X8 -->
<svg xmlns="http://www.w3.org/2000/svg" xml:space="preserve" width="250px" height="96px" version="1.1" shape-rendering="geometricPrecision" text-rendering="geometricPrecision" image-rendering="optimizeQuality" fill-rule="evenodd" clip-rule="evenodd"
viewBox="0 0 169396 64927"
 xmlns:xlink="http://www.w3.org/1999/xlink">
 <g id="Слой_x0020_1">
  <metadata id="CorelCorpID_0Corel-Layer"/>
  <g id="_1858585245632">
   <g>
    <path fill="#3AA6DE" fill-rule="nonzero" d="M10825 37781l4915 631c-573,2006 -1555,3649 -2948,4929 -1392,1281 -3149,1921 -5271,1921 -2301,0 -4130,-781 -5486,-2344 -1357,-1562 -2035,-3570 -2035,-6023 0,-2830 837,-5334 2511,-7515 1675,-2180 3976,-3270 6904,-3270 2131,0 3856,654 5177,1961 1321,1307 1994,3035 2021,5184l-5170 376c-18,-1128 -193,-1970 -524,-2525 -332,-555 -891,-832 -1679,-832 -1361,0 -2290,1007 -2787,3021 -497,2015 -745,3600 -745,4755 0,1880 734,2820 2202,2820 725,0 1312,-242 1760,-725 448,-484 832,-1272 1155,-2364z"/>
    <path fill="#3AA6DE" fill-rule="nonzero" d="M16546 44872l2283 -13658 7843 0c2892,0 4338,1047 4338,3143 0,2005 -1244,3142 -3733,3411 1280,251 2176,609 2686,1074 510,466 765,1097 765,1894 0,1280 -474,2290 -1423,3028 -949,739 -2396,1108 -4338,1108l-8421 0zm5589 -2968l0 0 1785 0c1279,0 1920,-635 1920,-1907 0,-465 -137,-779 -410,-940 -273,-161 -727,-242 -1363,-242l-1411 0 -521 3089zm871 -5157l0 0 1773 0c1038,0 1558,-502 1558,-1504 0,-421 -94,-721 -282,-900 -187,-179 -522,-269 -1004,-269l-1594 0 -451 2673z"/>
    <path fill="#3AA6DE" fill-rule="nonzero" d="M39123 45195c-1890,0 -3477,-562 -4762,-1686 -1284,-1124 -1927,-2657 -1927,-4600 0,-2337 746,-4257 2236,-5761 1491,-1505 3373,-2257 5648,-2257 2077,0 3727,589 4949,1766 1222,1178 1833,2631 1833,4358 0,2570 -786,4576 -2357,6017 -1571,1442 -3445,2163 -5620,2163zm214 -3304l0 0c941,0 1578,-698 1914,-2095 336,-1397 504,-2565 504,-3506 0,-1432 -519,-2149 -1558,-2149 -922,0 -1560,714 -1914,2143 -354,1428 -531,2594 -531,3498 0,1406 529,2109 1585,2109z"/>
    <path fill="#3AA6DE" fill-rule="nonzero" d="M53511 43690l-202 1182 -5269 0 2283 -13658 5269 0 -698 4181c-149,886 -401,2071 -758,3554 826,-1339 1516,-2412 2071,-3219l2133 -3064 243 -1452 5269 0 -2283 13658 -5269 0 650 -3891c171,-1028 429,-2215 772,-3562 -814,1329 -1507,2400 -2079,3213l-2132 3058zm7181 -18829l0 0 2363 0c-1173,2767 -3057,4150 -5654,4150 -2507,0 -3881,-1383 -4123,-4150l2297 0c224,1272 942,1907 2154,1907 1248,0 2235,-635 2963,-1907z"/>
    <path fill="#3AA6DE" fill-rule="nonzero" d="M84058 33489l3507 11383 -5410 0 -2073 -7570 -2781 3100 -746 4470 -5106 0 3062 -18332 5105 0 -1406 8422c295,-698 737,-1388 1323,-2072 587,-684 1536,-1819 2846,-3405l2612 -2945 5233 0 -6166 6949z"/>
    <polygon fill="#3AA6DE" fill-rule="nonzero" points="86827,44872 93533,31308 97623,31308 101076,44872 95781,44872 94220,37472 90621,44872 "/>
    <path fill="#3AA6DE" fill-rule="nonzero" d="M107473 43690l-201 1182 -5269 0 2283 -13658 5269 0 -699 4181c-148,886 -400,2071 -757,3554 825,-1339 1516,-2412 2071,-3219l2132 -3064 243 -1452 5269 0 -2283 13658 -5269 0 650 -3891c172,-1028 430,-2215 773,-3562 -815,1329 -1507,2400 -2080,3213l-2132 3058z"/>
    <polygon fill="#3AA6DE" fill-rule="nonzero" points="118360,44872 120644,31214 128100,31214 128501,41918 132502,31214 139470,31214 137188,44872 132409,44872 134168,34343 133926,34343 129948,44872 124771,44872 124338,34343 124083,34343 122323,44872 "/>
    <path fill="#3AA6DE" fill-rule="nonzero" d="M153911 44818l-5310 0c-27,-259 -40,-470 -40,-631 0,-457 33,-996 98,-1618 -1065,1706 -2552,2558 -4458,2558 -1290,0 -2333,-371 -3130,-1114 -797,-744 -1195,-1675 -1195,-2794 0,-833 215,-1596 644,-2290 430,-693 1039,-1246 1826,-1658 787,-412 1592,-683 2416,-813 822,-129 2433,-306 4831,-530 113,-331 169,-591 169,-779 0,-743 -519,-1115 -1558,-1115 -1021,0 -1774,506 -2257,1518l-4419 -900c1119,-2516 3581,-3774 7387,-3774 1925,0 3438,334 4539,1000 1101,668 1652,1650 1652,2948 0,583 -322,2642 -967,6178 -241,1317 -363,2189 -363,2619 0,349 45,748 135,1195zm-4776 -6446l0 0c-2466,188 -3698,976 -3698,2364 0,761 398,1141 1194,1141 509,0 1020,-228 1529,-685 510,-456 835,-1396 975,-2820z"/>
    <polygon fill="#3AA6DE" fill-rule="nonzero" points="158276,44872 160008,34517 156288,34517 156838,31214 169396,31214 168832,34517 165278,34517 163546,44872 "/>
   </g>
   <g>
    <path fill="#3AA6DE" fill-rule="nonzero" d="M50840 19104c-7089,1496 -6695,1220 -7797,1220 -1103,0 -1497,-354 -1064,-1299 434,-945 1851,-2324 1654,-2520 -197,-197 -2564,1095 -3544,1850 -980,755 -2638,2048 -4725,2481 -2087,433 -2599,118 -2206,-1220 394,-1339 1969,-3545 2245,-3820 276,-276 -1063,-236 -4135,1339 -3071,1575 -5040,2953 -8230,3150 -3190,197 -1831,-2894 -1024,-3702 4489,-5985 12444,-10278 12444,-10789 0,-513 -7403,2205 -12680,6064 -5277,3859 -8033,8978 -5356,12129 2678,3150 11499,-473 11499,-473 0,0 669,2756 4568,2756 3317,0 5473,-2430 5862,-2975 -134,554 687,2818 2959,2818 2441,0 8191,-3780 13153,-5592 4961,-1811 9057,-551 9057,-945 0,-394 -5592,-1969 -12680,-472z"/>
    <path fill="#3AA6DE" fill-rule="nonzero" d="M65055 13197c-4331,-434 -8072,433 -8072,433 0,0 -685,-822 -2323,-1300 -1639,-477 -3860,0 -3860,0 0,0 1103,-2205 237,-4016 -867,-1812 -3820,-1457 -4371,-2009 -552,-551 669,-2992 -1851,-4843 -2028,-1489 -5422,-1500 -5858,-1447 -1021,18 -3100,168 -4735,817 -2678,1063 -3964,2573 -3781,2756 184,184 1163,-361 1742,-516 5590,-1500 10902,-1394 11687,1461 866,3151 -1832,4942 -2914,6025 -1083,1083 -958,2035 -749,2245 210,210 512,-512 1969,-1024 1457,-512 3190,-472 4647,276 1457,748 1162,3366 1457,3662 295,295 1930,-2442 5119,-1890 3190,551 2402,1811 2914,2323 512,512 1497,0 2009,-512 512,-512 2244,-590 6300,-590 4056,0 8506,1555 8506,1260 0,-296 -3741,-2678 -8073,-3111z"/>
   </g>
   <g>
    <path fill="#948F8D" fill-rule="nonzero" d="M75008 64927l517 -2416 -5096 0 -518 2416 -1368 0 766 -3651 686 0c735,-1032 1427,-2226 2076,-3581 649,-1356 1167,-2686 1557,-3991l4042 0 -1602 7572 1120 0 -777 3651 -1403 0zm952 -9976l0 0 -1362 0c-321,980 -757,2064 -1307,3253 -551,1189 -1113,2213 -1687,3072l2994 0 1362 -6325z"/>
    <polygon fill="#948F8D" fill-rule="nonzero" points="83002,62511 78327,62511 80189,53704 84864,53704 84605,54938 81357,54938 80851,57318 83875,57318 83629,58541 80592,58541 80014,61289 83261,61289 "/>
    <path fill="#948F8D" fill-rule="nonzero" d="M89045 54951c-542,2088 -1000,3682 -1371,4780 -372,1098 -764,1859 -1178,2283 -413,424 -974,636 -1681,636 -325,0 -592,-51 -801,-151l0 -1210c221,84 422,126 602,126 273,0 499,-63 675,-190 177,-126 349,-334 515,-624 167,-289 356,-740 570,-1355 212,-614 462,-1423 746,-2425 286,-1002 569,-2041 850,-3117l4735 0 -1873 8807 -1434 0 1620 -7560 -1975 0z"/>
    <path fill="#948F8D" fill-rule="nonzero" d="M97629 60066l-2921 0 -1260 2445 -1530 0 4717 -8819 1651 0 1000 8819 -1409 0 -248 -2445zm-96 -1254l0 0c-161,-1670 -252,-2682 -274,-3033 -22,-351 -33,-632 -33,-841 -221,559 -506,1176 -856,1850l-1036 2024 2199 0z"/>
    <polygon fill="#948F8D" fill-rule="nonzero" points="105033,62511 100358,62511 102220,53704 106895,53704 106636,54938 103388,54938 102883,57318 105907,57318 105660,58541 102623,58541 102045,61289 105292,61289 "/>
    <path fill="#948F8D" fill-rule="nonzero" d="M110323 62511l-693 -7313 -36 0c-37,474 -147,1156 -331,2048l-1109 5265 -1319 0 1861 -8807 1946 0 657 6922 36 0 3651 -6922 2072 0 -1837 8807 -1368 0 1096 -5253c157,-747 330,-1434 518,-2060l-35 0 -3874 7313 -1235 0z"/>
    <path fill="#948F8D" fill-rule="nonzero" d="M124866 54951c-542,2088 -999,3682 -1371,4780 -371,1098 -764,1859 -1177,2283 -414,424 -975,636 -1682,636 -325,0 -591,-51 -801,-151l0 -1210c221,84 422,126 603,126 273,0 498,-63 675,-190 176,-126 348,-334 515,-624 166,-289 356,-740 569,-1355 213,-614 462,-1423 747,-2425 285,-1002 568,-2041 850,-3117l4735 0 -1874 8807 -1434 0 1621 -7560 -1976 0z"/>
    <path fill="#948F8D" fill-rule="nonzero" d="M129680 62632c-442,0 -822,-60 -1140,-181l0 -1307c330,157 698,235 1103,235 342,0 646,-99 913,-296 267,-196 563,-564 889,-1102l-1789 -6277 1439 0 1000 3837c157,643 255,1086 295,1332 201,-474 396,-874 585,-1199l2253 -3970 1591 0 -3874 6428c-430,715 -799,1237 -1106,1566 -307,329 -631,567 -972,714 -342,147 -738,220 -1187,220z"/>
    <path fill="#948F8D" fill-rule="nonzero" d="M140536 62511l741 -3494c-755,346 -1504,518 -2247,518 -651,0 -1153,-157 -1507,-473 -353,-315 -529,-758 -529,-1328 0,-245 31,-528 95,-850l669 -3180 1434 0 -644 3072c-65,273 -97,494 -97,663 0,578 337,867 1012,867 615,0 1305,-152 2073,-458l861 -4144 1446 0 -1867 8807 -1440 0z"/>
    <polygon fill="#948F8D" fill-rule="nonzero" points="144186,62511 146048,53704 147518,53704 145897,61276 148650,61276 150253,53704 151723,53704 150120,61276 152855,61276 154464,53704 155916,53704 154055,62511 "/>
    <polygon fill="#948F8D" fill-rule="nonzero" points="160952,62511 156277,62511 158139,53704 162814,53704 162555,54938 159307,54938 158802,57318 161826,57318 161579,58541 158542,58541 157964,61289 161211,61289 "/>
   </g>
  </g>
 </g>
</svg>
